<svg width="31" height="31" viewBox="0 0 31 31" fill="none" xmlns="http://www.w3.org/2000/svg">
<path d="M15.6293 12.3489L21.8793 18.5989M21.8793 12.3489L15.6293 18.5989M6.26404 17.9171L9.92833 22.6671C10.369 23.2383 10.5893 23.5239 10.8659 23.7298C11.111 23.912 11.3874 24.0479 11.6814 24.1305C12.0133 24.2239 12.374 24.2239 13.0955 24.2239H22.8793C24.2794 24.2239 24.9795 24.2239 25.5143 23.9514C25.9846 23.7118 26.3671 23.3293 26.6068 22.8589C26.8793 22.3241 26.8793 21.624 26.8793 20.2239V10.7239C26.8793 9.32375 26.8793 8.62368 26.6068 8.0889C26.3671 7.61849 25.9846 7.23604 25.5143 6.99636C24.9795 6.72388 24.2794 6.72388 22.8793 6.72388H13.0955C12.374 6.72388 12.0133 6.72388 11.6814 6.81721C11.3874 6.89989 11.111 7.03575 10.8659 7.21805C10.5893 7.42385 10.369 7.70945 9.92833 8.28066L6.26404 13.0306C5.58954 13.905 5.25229 14.3423 5.12257 14.8244C5.00809 15.2498 5.00809 15.698 5.12257 16.1234C5.25229 16.6055 5.58954 17.0428 6.26404 17.9171Z" stroke="#FF9696" stroke-width="2" stroke-linecap="round" stroke-linejoin="round"/>
</svg>
