<svg width="51" height="49" viewBox="0 0 51 49" fill="none" xmlns="http://www.w3.org/2000/svg">
<path d="M14.7282 4.18665C13.2827 2.11663 10.8738 0.770142 8.15918 0.770142C3.73623 0.770142 0.134277 4.37258 0.134277 8.80637C0.134277 11.5218 1.48154 13.9187 3.55039 15.3641C5.88193 10.4813 9.84531 6.51819 14.7282 4.18665Z" fill="#498349"/>
<path d="M42.0985 0.770142C39.3282 0.770142 36.8876 2.18264 35.4422 4.3178C40.2595 6.70413 44.1568 10.6783 46.4342 15.5508C48.6566 14.1384 50.1343 11.6418 50.1343 8.80637C50.1343 4.37258 46.5323 0.770142 42.0985 0.770142Z" fill="#498349"/>
<path d="M46.4542 25.5911C46.4523 13.8147 36.911 4.27441 25.1355 4.27197C13.3597 4.27441 3.8176 13.8147 3.81555 25.5911C3.81633 32.2913 6.91252 38.2623 11.7463 42.1706L10.3117 44.6728C9.62844 45.8655 10.0401 47.3843 11.2321 48.0667C12.4221 48.7476 13.9436 48.3347 14.6244 47.1451L15.9601 44.8119C18.742 46.1431 21.8458 46.9093 25.1356 46.9108C28.4253 46.9093 31.528 46.1431 34.3099 44.8126L35.645 47.145C36.3263 48.3346 37.8478 48.7475 39.0378 48.0666C40.2298 47.3842 40.6414 45.8654 39.9581 44.6727L38.5236 42.1705C43.3569 38.2623 46.4531 32.2921 46.4542 25.5911ZM25.1355 9.52832C29.5798 9.5291 33.5793 11.3207 36.4941 14.2325C39.4056 17.1468 41.1971 21.1468 41.1983 25.5911C41.1971 30.0354 39.4055 34.0354 36.4941 36.9505C33.5793 39.8624 29.5798 41.6539 25.1355 41.6547C20.6908 41.6539 16.6912 39.8607 13.7757 36.9505C10.8643 34.0355 9.07229 30.0354 9.07151 25.5911C9.07229 21.1468 10.8643 17.1468 13.7757 14.2325C16.6912 11.3207 20.6908 9.5291 25.1355 9.52832Z" fill="#498349"/>
<path d="M25.1354 27.245L34.4079 27.0503C35.1628 27.0503 35.7745 26.4378 35.7745 25.6829C35.7745 24.928 35.1628 24.3163 34.4079 24.3163L26.6525 24.1529L26.3455 13.588C26.3455 12.9191 25.8034 12.3783 25.1354 12.3783C24.4682 12.3783 23.9261 12.9191 23.9261 13.588L23.5732 25.6829C23.5733 26.5457 24.2727 27.245 25.1354 27.245Z" fill="#498349"/>
</svg>
