<svg width="51" height="51" viewBox="0 0 51 51" fill="none" xmlns="http://www.w3.org/2000/svg">
<path d="M12.4583 31.4041C8.98694 32.7277 6.83325 34.5718 6.83325 36.6118C6.83325 40.6393 15.2279 43.9041 25.5833 43.9041C35.9387 43.9041 44.3333 40.6393 44.3333 36.6118C44.3333 34.5718 42.1795 32.7277 38.7082 31.4041M25.5833 18.9041H25.6041M38.0833 18.9041C38.0833 27.3702 28.7083 31.4041 25.5833 37.6541C22.4583 31.4041 13.0833 27.3702 13.0833 18.9041C13.0833 12.0006 18.6797 6.40411 25.5833 6.40411C32.4868 6.40411 38.0833 12.0006 38.0833 18.9041ZM27.6666 18.9041C27.6666 20.0547 26.7339 20.9874 25.5833 20.9874C24.4326 20.9874 23.4999 20.0547 23.4999 18.9041C23.4999 17.7535 24.4326 16.8208 25.5833 16.8208C26.7339 16.8208 27.6666 17.7535 27.6666 18.9041Z" stroke="white" stroke-width="5.33333" stroke-linecap="round" stroke-linejoin="round"/>
</svg>
