<svg width="50" height="51" viewBox="0 0 50 51" fill="none" xmlns="http://www.w3.org/2000/svg">
<g clip-path="url(#clip0_162_617)">
<path d="M24.9478 0.614136L25.0797 0.615112C25.3863 0.6315 25.682 0.741693 25.9254 0.932495L48.9254 18.9325V18.9335L49.0367 19.0292C49.1432 19.131 49.2345 19.248 49.3072 19.3768L49.3726 19.5087C49.4321 19.6436 49.472 19.7866 49.4898 19.9335L49.4996 20.0809C49.5017 20.1791 49.4951 20.2772 49.4781 20.3739L49.4449 20.5175C49.3919 20.7071 49.3027 20.8849 49.1812 21.0399C49.0597 21.1949 48.9084 21.3241 48.7369 21.4208C48.5652 21.5175 48.3759 21.5797 48.1802 21.6034C47.9846 21.627 47.786 21.6115 47.5963 21.5585C47.4068 21.5055 47.2296 21.4161 47.0748 21.2948L46.4996 20.8446V46.1141L46.4927 46.2616C46.4587 46.6051 46.3073 46.9285 46.0611 47.1747C45.8149 47.4209 45.4915 47.5723 45.148 47.6063L44.9996 47.6141H4.99957C4.65169 47.614 4.31616 47.4928 4.04938 47.2743L3.93903 47.1747C3.65783 46.8935 3.4997 46.5118 3.49957 46.1141V20.8446L2.92535 21.2948L2.92438 21.2938C2.76962 21.4151 2.59322 21.5055 2.40387 21.5585C2.21413 21.6115 2.01547 21.627 1.81989 21.6034C1.67314 21.5857 1.52987 21.5465 1.39508 21.4872L1.26324 21.4208C1.09168 21.3241 0.940439 21.1949 0.818909 21.0399C0.727689 20.9236 0.654459 20.7944 0.601135 20.6571L0.555237 20.5175C0.502257 20.3277 0.48662 20.1291 0.510315 19.9335L0.535706 19.788C0.567682 19.6443 0.620412 19.5055 0.692932 19.3768L0.771057 19.2528C0.855665 19.1321 0.958313 19.0247 1.07477 18.9335V18.9325L24.0748 0.932495C24.3244 0.736781 24.6298 0.625478 24.9468 0.614136H24.9478ZM6.49957 18.496V44.6141H43.4996V18.495L24.9996 4.01746L6.49957 18.496ZM38.4996 18.6141V38.6141H11.4996V18.6141H38.4996ZM14.4996 34.8641V35.6141H35.4996V34.8632L28.9205 29.9296L27.9097 30.6747L27.9107 30.6757C26.2631 31.9336 23.9505 31.9356 22.3004 30.6825V30.6835L21.1666 29.8632L14.4996 34.8641ZM14.4996 31.1132L18.6187 28.0233L14.4996 25.0477V31.1132ZM31.4429 28.0721L35.4996 31.1132V25.0819L31.4429 28.0721ZM24.0894 28.2753L24.1226 28.2987L24.1304 28.3065C24.6807 28.711 25.5469 28.7072 26.0894 28.2928L26.0923 28.2899L26.1041 28.2811L35.149 21.6141H14.8697L24.0894 28.2753Z" fill="white" stroke="white"/>
</g>
<defs>
<clipPath id="clip0_162_617">
<rect width="50" height="50" fill="white" transform="translate(0 0.11377)"/>
</clipPath>
</defs>
</svg>
