<svg width="49" height="43" viewBox="0 0 49 43" fill="none" xmlns="http://www.w3.org/2000/svg">
<path fill-rule="evenodd" clip-rule="evenodd" d="M23.0632 0.813477C23.8679 0.0472056 25.1321 0.0472056 25.9369 0.813477L42.6036 16.6865L47.8119 21.6469C48.645 22.4402 48.6771 23.759 47.8836 24.5923C47.0902 25.4254 45.7715 25.4575 44.9382 24.664L43.25 23.0563V38.7804C43.25 41.0817 41.3846 42.9471 39.0834 42.9471H28.6667H20.3334H9.91669C7.6155 42.9471 5.75003 41.0817 5.75003 38.7804V23.0563L4.06182 24.664C3.22861 25.4575 1.90992 25.4254 1.1164 24.5923C0.322891 23.759 0.355054 22.4402 1.18824 21.6469L6.39657 16.6865L23.0632 0.813477ZM9.91669 19.0879V38.7804H18.25V28.3638C18.25 24.9119 21.0482 22.1138 24.5 22.1138C27.9519 22.1138 30.75 24.9119 30.75 28.3638V38.7804H39.0834V19.0879L24.5 5.19908L9.91669 19.0879ZM26.5834 38.7804V28.3638C26.5834 27.2131 25.6507 26.2804 24.5 26.2804C23.3494 26.2804 22.4167 27.2131 22.4167 28.3638V38.7804H26.5834Z" fill="white"/>
</svg>
